<?xml version="1.0" standalone="no"?>
<!DOCTYPE svg PUBLIC "-//W3C//DTD SVG 20010904//EN"
 "http://www.w3.org/TR/2001/REC-SVG-20010904/DTD/svg10.dtd">
<svg version="1.0" xmlns="http://www.w3.org/2000/svg"
 width="390.000000pt" height="424.000000pt" viewBox="0 0 390.000000 424.000000"
 preserveAspectRatio="xMidYMid meet">

<g transform="translate(0.000000,424.000000) scale(0.100000,-0.100000)"
fill="#000000" stroke="none">
<path d="M1798 4165 c-235 -57 -486 -281 -637 -566 l-24 -46 -141 -6 c-353
-14 -613 -120 -765 -311 -208 -261 -196 -631 34 -1036 l46 -81 -21 -29 c-40
-55 -139 -275 -164 -362 -48 -165 -56 -323 -24 -458 19 -83 93 -222 153 -288
163 -180 446 -282 778 -282 l98 0 17 -31 c51 -92 159 -244 223 -313 127 -136
280 -234 424 -271 79 -21 242 -21 320 0 231 61 432 232 606 515 l61 100 106 0
c354 0 673 133 814 338 186 270 164 630 -65 1027 l-35 60 53 92 c60 106 115
242 146 358 29 108 32 320 5 414 -64 232 -232 400 -488 490 -119 41 -236 61
-404 68 l-142 6 -17 36 c-38 81 -156 241 -240 327 -134 136 -264 215 -408 249
-77 18 -233 18 -309 0z m322 -128 c115 -39 198 -94 301 -196 82 -83 219 -264
219 -291 0 -5 -17 -12 -37 -15 -108 -15 -356 -66 -416 -85 l-67 -21 25 -37
c14 -20 25 -45 25 -55 0 -14 5 -17 18 -12 87 33 433 99 493 93 33 -3 35 -6 80
-119 45 -110 129 -383 129 -416 0 -13 -3 -14 -19 -2 -88 62 -262 176 -335 218
-101 59 -341 181 -356 181 -5 0 -10 -6 -10 -14 0 -8 -11 -28 -25 -44 -14 -17
-25 -32 -25 -35 0 -2 64 -36 143 -75 176 -88 330 -181 490 -295 191 -137 174
-114 192 -247 20 -138 30 -572 18 -717 l-9 -103 58 0 57 0 7 38 c10 52 11 511
1 657 l-8 120 91 -90 c84 -83 226 -247 278 -321 l21 -31 -56 -74 c-70 -93 -96
-123 -197 -228 -56 -59 -76 -86 -66 -89 8 -3 30 -20 47 -37 l33 -33 89 94 c50
51 118 130 152 174 34 43 66 77 72 73 14 -8 102 -196 126 -268 72 -217 66
-408 -17 -572 -65 -126 -227 -244 -412 -299 -131 -39 -399 -61 -387 -31 40 97
82 215 110 307 l35 115 -40 7 c-22 4 -47 13 -54 19 -8 7 -16 10 -18 8 -2 -2
-16 -46 -30 -98 -25 -87 -116 -330 -134 -358 -11 -17 -199 9 -377 52 -230 55
-228 42 -25 144 175 87 295 157 439 253 42 28 78 53 81 55 5 4 -41 92 -52 99
-4 3 -54 -26 -110 -64 -198 -132 -378 -230 -596 -323 l-113 -49 -109 44 c-191
79 -409 195 -577 308 -40 26 -73 48 -75 48 -2 0 -3 -19 -3 -42 0 -24 -4 -53
-8 -65 -7 -20 0 -28 65 -69 115 -74 293 -172 416 -229 63 -29 110 -55 105 -58
-4 -2 -71 -21 -148 -40 -126 -33 -245 -55 -376 -71 l-47 -5 -40 97 c-22 53
-54 141 -72 195 l-31 97 -60 0 c-32 0 -59 -3 -59 -7 0 -16 72 -236 100 -302
16 -41 30 -76 30 -79 0 -3 -55 -2 -122 1 -400 20 -672 203 -733 492 -35 167
-3 351 100 570 67 143 60 140 135 43 35 -46 124 -144 198 -218 123 -125 134
-134 145 -115 31 51 85 94 126 101 l42 7 -8 101 c-14 180 -8 618 11 756 20
144 0 118 200 262 123 89 370 238 474 286 l58 27 -4 60 c-3 33 -6 62 -8 64 -5
6 -282 -141 -379 -202 -49 -30 -133 -85 -185 -121 -52 -35 -96 -63 -98 -61
-13 12 100 373 153 488 25 55 28 57 65 57 49 0 249 -34 350 -60 43 -11 83 -20
89 -20 7 0 11 23 11 60 l0 59 -37 11 c-36 10 -263 53 -345 65 -21 3 -38 9 -38
14 0 4 27 48 59 97 135 204 315 353 484 399 84 22 230 19 307 -8z m-1050 -612
c0 -2 -18 -50 -40 -105 -51 -129 -103 -304 -134 -453 l-24 -118 -49 -42 c-105
-90 -247 -235 -339 -348 -54 -65 -102 -115 -106 -113 -5 3 -24 36 -42 73 -150
296 -174 547 -74 750 107 215 389 354 731 360 42 0 77 -1 77 -4z m1977 -5
c216 -27 382 -99 497 -214 83 -82 119 -144 146 -252 32 -123 22 -278 -26 -429
-20 -62 -125 -285 -134 -285 -4 0 -38 39 -76 88 -67 84 -269 295 -367 381 -47
41 -47 42 -73 163 -30 142 -89 338 -138 461 -20 48 -36 90 -36 93 0 8 124 4
207 -6z m-2217 -1041 c-13 -170 -8 -499 9 -631 4 -32 4 -58 1 -58 -3 0 -55 51
-116 113 -113 114 -188 201 -243 280 l-30 44 77 98 c76 100 301 339 310 331 2
-3 -1 -82 -8 -177z m1226 -1539 c129 -45 300 -87 449 -111 72 -12 132 -23 134
-25 6 -5 -49 -95 -101 -164 -261 -349 -578 -446 -883 -268 -95 56 -246 208
-324 327 -33 51 -61 96 -61 100 0 4 62 17 137 30 155 25 318 66 443 109 47 17
92 31 101 31 8 1 55 -13 105 -29z"/>
<path d="M1802 3448 c-8 -8 -12 -54 -12 -143 0 -181 8 -186 154 -103 111 62
126 75 126 103 0 28 -15 41 -126 103 -94 53 -121 61 -142 40z"/>
<path d="M1865 2874 c-96 -20 -168 -40 -219 -62 -96 -40 -246 -152 -204 -152
9 0 21 -6 28 -14 9 -12 7 -17 -9 -28 -12 -7 -21 -20 -21 -30 0 -11 -10 -18
-31 -20 -28 -3 -29 -4 -16 -23 13 -16 17 -17 31 -6 14 12 19 10 37 -13 11 -14
34 -40 52 -57 18 -18 31 -40 29 -50 -2 -10 6 -23 17 -29 24 -12 27 -33 7 -49
-11 -9 -20 -7 -40 12 -14 13 -26 28 -26 34 0 5 -15 7 -34 5 -31 -4 -34 -6 -23
-23 14 -22 33 -25 40 -6 3 8 7 6 12 -6 11 -26 -15 -49 -59 -50 -19 0 -38 -7
-40 -14 -3 -7 -12 -13 -21 -13 -9 0 -24 -18 -34 -42 -11 -24 -28 -51 -40 -61
-17 -14 -19 -21 -11 -36 24 -46 -2 -56 -40 -16 -13 14 -29 25 -37 25 -19 0
-17 -66 2 -74 12 -4 13 -11 5 -31 -13 -34 -14 -32 14 -39 18 -4 26 -14 28 -34
4 -36 41 -42 73 -12 22 21 24 21 55 5 17 -9 38 -14 45 -11 8 3 30 -6 50 -20
20 -13 44 -24 54 -24 21 0 42 -17 63 -50 11 -18 31 -30 67 -39 28 -7 61 -21
73 -30 l21 -18 -20 -39 c-24 -47 -39 -80 -52 -115 -6 -18 -19 -28 -40 -32 -24
-5 -35 -16 -52 -52 -12 -25 -25 -45 -31 -45 -21 0 7 -23 55 -45 135 -60 234
-80 375 -72 298 15 568 214 666 491 34 95 41 155 22 179 -13 17 -15 17 -49 -5
-44 -29 -59 -60 -51 -104 5 -27 3 -34 -10 -34 -9 0 -16 5 -16 10 0 6 -8 10
-19 10 -18 0 -33 27 -45 81 -3 14 -17 38 -31 53 -14 15 -25 31 -25 37 0 5 -21
9 -46 9 -40 0 -45 -2 -34 -15 20 -24 2 -51 -55 -80 -49 -24 -53 -29 -38 -40
24 -18 4 -60 -59 -125 -43 -45 -49 -55 -44 -81 3 -16 9 -42 12 -58 5 -24 1
-33 -24 -51 -17 -13 -28 -28 -26 -35 3 -7 -13 -39 -34 -71 -41 -61 -93 -99
-127 -93 -22 4 -73 99 -74 137 -1 13 -8 36 -16 53 -13 25 -14 36 -4 63 10 29
9 39 -9 78 -12 24 -22 54 -22 65 0 15 -8 22 -32 27 -48 9 -49 9 -98 2 -44 -7
-46 -6 -93 39 -45 45 -47 49 -47 105 0 55 3 61 40 100 56 58 74 94 55 110 -14
12 -15 66 -1 88 5 8 21 12 39 10 30 -3 32 -1 33 30 1 23 8 38 25 50 36 24 79
69 79 81 0 6 -7 11 -15 11 -24 0 -30 47 -9 78 35 53 120 128 161 140 49 15 90
15 106 2 7 -6 32 -24 57 -40 39 -25 47 -27 56 -15 6 8 18 15 27 15 8 0 18 7
21 17 6 15 8 15 19 0 7 -9 25 -15 44 -14 44 3 49 13 13 25 -34 12 -49 37 -31
55 23 23 9 36 -66 65 -111 43 -272 63 -358 46z m-97 -416 c-4 -29 -38 -38 -38
-10 0 19 11 29 33 31 5 1 7 -9 5 -21z m500 -787 c-6 -59 -30 -101 -59 -101
-19 0 -20 4 -14 53 5 39 13 57 33 74 39 33 45 29 40 -26z"/>
<path d="M2334 2749 c-6 -11 11 -28 31 -30 6 0 21 -2 35 -5 25 -4 25 -3 -5 21
-33 27 -50 31 -61 14z"/>
<path d="M1986 2613 c-6 -14 -5 -15 5 -6 7 7 10 15 7 18 -3 3 -9 -2 -12 -12z"/>
<path d="M1940 2564 c0 -8 5 -12 10 -9 6 3 10 10 10 16 0 5 -4 9 -10 9 -5 0
-10 -7 -10 -16z"/>
<path d="M1950 2531 c0 -4 -13 -22 -30 -39 -33 -35 -41 -55 -12 -29 10 10 21
14 24 11 11 -10 48 35 42 51 -6 16 -24 21 -24 6z"/>
<path d="M1296 2491 c-4 -7 -5 -15 -2 -18 9 -9 19 4 14 18 -4 11 -6 11 -12 0z"/>
<path d="M1270 2440 c0 -5 5 -10 11 -10 5 0 7 5 4 10 -3 6 -8 10 -11 10 -2 0
-4 -4 -4 -10z"/>
<path d="M2056 2315 c-6 -16 12 -28 35 -24 8 2 25 -1 38 -5 14 -5 27 -4 34 3
14 14 -31 31 -67 24 -20 -4 -27 -2 -22 6 4 6 3 11 -2 11 -6 0 -13 -7 -16 -15z"/>
<path d="M1788 2280 c-35 -36 -34 -41 7 -32 23 5 31 13 33 35 4 34 -2 34 -40
-3z"/>
<path d="M1855 2260 c-16 -18 -16 -20 -2 -26 9 -3 19 -13 22 -22 8 -27 61 -46
93 -33 33 12 102 12 120 -2 9 -7 12 -4 12 13 0 19 -5 21 -37 18 -35 -3 -38 -1
-41 25 -4 29 -16 36 -26 12 -7 -20 -43 -19 -54 2 -9 14 -11 14 -21 -5 -12 -23
-36 -29 -46 -12 -4 6 -2 17 5 25 18 22 -5 27 -25 5z"/>
<path d="M2260 2132 c0 -5 7 -15 15 -22 8 -7 15 -8 15 -2 0 5 -7 15 -15 22 -8
7 -15 8 -15 2z"/>
<path d="M2151 2033 c6 -18 15 -33 20 -33 15 0 10 16 -11 41 l-20 24 11 -32z"/>
<path d="M2215 1960 c-3 -6 1 -7 9 -4 18 7 21 14 7 14 -6 0 -13 -4 -16 -10z"/>
<path d="M1222 1939 c3 -8 13 -37 23 -66 l19 -52 18 41 c22 50 22 48 -2 48
-11 0 -30 10 -42 22 -12 12 -19 15 -16 7z"/>
<path d="M2843 1640 c-40 -17 -38 -45 13 -133 85 -148 111 -171 146 -129 23
26 114 185 120 210 3 11 0 29 -7 39 -11 15 -31 18 -132 20 -65 2 -128 -2 -140
-7z"/>
<path d="M912 1582 c-32 -32 -122 -198 -122 -225 0 -39 26 -47 158 -47 102 0
121 3 135 18 24 26 22 34 -30 125 -84 148 -104 166 -141 129z"/>
</g>
</svg>
